<?xml version="1.0" encoding="iso-8859-1"?>
<!-- Generator: Adobe Illustrator 19.0.0, SVG Export Plug-In . SVG Version: 6.00 Build 0)  -->
<svg version="1.1" id="Capa_1" xmlns="http://www.w3.org/2000/svg" xmlns:xlink="http://www.w3.org/1999/xlink" x="0px" y="0px"
	 viewBox="0 0 512 512" style="enable-background:new 0 0 512 512;" xml:space="preserve">
<g>
	<g>
		<path d="M405.333,256c-35.285,0-64,28.715-64,64s28.715,64,64,64c35.285,0,64-28.715,64-64S440.619,256,405.333,256z
			 M405.333,362.667c-23.531,0-42.667-19.136-42.667-42.667c0-23.531,19.136-42.667,42.667-42.667
			C428.864,277.333,448,296.469,448,320S428.864,362.667,405.333,362.667z"/>
	</g>
</g>
<g>
	<g>
		<path d="M398.549,192.043C382.933,179.584,311.616,128,202.667,128c-20.608,0-73.195,2.112-120.576,21.333H32
			c-4.309,0-8.213,2.603-9.856,6.592c-1.664,3.989-0.747,8.555,2.304,11.627l10.411,10.411C11.712,198.741,0,224.939,0,256
			c0,36.629,3.307,85.333,32,85.333h4.501C33.643,334.784,32,327.595,32,320c0-29.461,23.872-53.333,53.333-53.333
			c29.461,0,53.333,23.872,53.333,53.333c0,7.595-1.643,14.784-4.501,21.333h222.336C353.643,334.784,352,327.595,352,320
			c0-29.461,23.872-53.333,53.333-53.333c29.461,0,53.333,23.872,53.333,53.333c0,7.595-1.643,14.784-4.501,21.333H480
			c12.885,0,32-13.44,32-32v-42.667C512,246.443,477.077,193.728,398.549,192.043z M330.667,234.667H224
			c-5.888,0-10.667-4.779-10.667-10.667v-42.667c0-5.888,4.779-10.667,10.667-10.667s10.667,4.779,10.667,10.667v32h96
			c5.888,0,10.667,4.779,10.667,10.667S336.555,234.667,330.667,234.667z"/>
	</g>
</g>
<g>
	<g>
		<path d="M85.333,256c-35.285,0-64,28.715-64,64s28.715,64,64,64s64-28.715,64-64S120.619,256,85.333,256z M85.333,362.667
			c-23.531,0-42.667-19.136-42.667-42.667c0-23.531,19.136-42.667,42.667-42.667C108.864,277.333,128,296.469,128,320
			S108.864,362.667,85.333,362.667z"/>
	</g>
</g>
<g>
</g>
<g>
</g>
<g>
</g>
<g>
</g>
<g>
</g>
<g>
</g>
<g>
</g>
<g>
</g>
<g>
</g>
<g>
</g>
<g>
</g>
<g>
</g>
<g>
</g>
<g>
</g>
<g>
</g>
</svg>
